# xmcd CD database file
#
# Track frame offsets:
#	150
#	40147
#	132017
#	162184
#
# Disc length: 3436 seconds
#
# Revision: 0
# Processed by: cddbd v1.5.2PL0 Copyright (c) Steve Scherf et al.
# Submitted via: CDex 1.70beta2
#
DISCID=280d6a04
DTITLE=Anthony Braxton - Small ensemble music
DYEAR=1900
DGENRE=Jazz
TTITLE0=Trio improvisation
TTITLE1=Composition N°107
TTITLE2=Duo improvisation
TTITLE3=Three compositions for sextet
EXTD=
EXTT0=
EXTT1=
EXTT2=
EXTT3=
PLAYORDER=
